<svg xmlns="http://www.w3.org/2000/svg" width="20.85" height="25.173" viewBox="0 0 20.85 25.173"><defs><style>.a{fill:#4c4c4c;}</style></defs><g transform="translate(7.917 5.311)"><path class="a" d="M212.953,108.016h-6.977a.983.983,0,0,0,0,1.967h6.977a.983.983,0,1,0,0-1.967Z" transform="translate(-204.992 -108.016)"/></g><g transform="translate(7.917 9.245)"><path class="a" d="M212.953,188.027h-6.977a.983.983,0,1,0,0,1.967h6.977a.983.983,0,1,0,0-1.967Z" transform="translate(-204.992 -188.027)"/></g><g transform="translate(7.917 13.178)"><path class="a" d="M208.975,268.039h-3a.983.983,0,1,0,0,1.967h3a.983.983,0,1,0,0-1.967Z" transform="translate(-204.992 -268.039)"/></g><path class="a" d="M63.834,13.375a.983.983,0,0,0,.983-.983V3.934A3.938,3.938,0,0,0,60.884,0H51.836A3.938,3.938,0,0,0,47.9,3.93a3.938,3.938,0,0,0-3.934,3.934V21.239A3.938,3.938,0,0,0,47.9,25.173h9.54a3.938,3.938,0,0,0,3.934-3.934v-.03a3.94,3.94,0,0,0,3.442-3.9.983.983,0,1,0-1.967,0,1.969,1.969,0,0,1-1.966,1.967l-9.048,0h0a1.967,1.967,0,0,1-1.967-1.967V3.934a1.969,1.969,0,0,1,1.967-1.967h9.048a1.969,1.969,0,0,1,1.967,1.967v8.458A.983.983,0,0,0,63.834,13.375Zm-12,7.867h0l7.572,0a1.969,1.969,0,0,1-1.967,1.966H47.9a1.969,1.969,0,0,1-1.967-1.967V7.864A1.969,1.969,0,0,1,47.9,5.9V17.308a3.934,3.934,0,0,0,3.934,3.934Z" transform="translate(-43.968)"/></svg>