<svg xmlns="http://www.w3.org/2000/svg" width="26.393" height="26.395" viewBox="0 0 26.393 26.395"><defs><style>.a{fill:#4c4c4c;}</style></defs><path class="a" d="M19.11,20.208V22.27a4.129,4.129,0,0,1-4.124,4.124H4.624A4.129,4.129,0,0,1,.5,22.27V4.124A4.129,4.129,0,0,1,4.624,0H14.986A4.129,4.129,0,0,1,19.11,4.124V6.186a1.031,1.031,0,1,1-2.062,0V4.124a2.065,2.065,0,0,0-2.062-2.062H4.624A2.065,2.065,0,0,0,2.562,4.124V22.27a2.065,2.065,0,0,0,2.062,2.062H14.986a2.065,2.065,0,0,0,2.062-2.062V20.208a1.031,1.031,0,0,1,2.062,0Zm7.029-8.782L23.831,9.117a1.031,1.031,0,1,0-1.458,1.458l1.642,1.642H11.635a1.031,1.031,0,1,0,0,2.062h12.38l-1.642,1.642a1.031,1.031,0,1,0,1.458,1.458l2.309-2.309A2.58,2.58,0,0,0,26.14,11.426Zm0,0" transform="translate(-0.5)"/></svg>