<svg xmlns="http://www.w3.org/2000/svg" width="23" height="23" viewBox="0 0 23 23"><defs><style>.a{fill:#4c4c4c;}</style></defs><path class="a" d="M5.391,9.119H3.615a7.908,7.908,0,0,1,15.3-2.159A.9.9,0,1,0,20.6,6.337,9.7,9.7,0,0,0,1.8,9.6,3.6,3.6,0,0,0,0,12.713v3.055a3.6,3.6,0,0,0,3.594,3.594h1.8a.9.9,0,0,0,.9-.9V10.018A.9.9,0,0,0,5.391,9.119Zm-.9,8.445h-.9a1.8,1.8,0,0,1-1.8-1.8V12.713a1.8,1.8,0,0,1,1.8-1.8h.9Z" transform="translate(0 0)"/><path class="a" d="M225.7,203h-1.8a.9.9,0,0,0-.9.9v9.389a.9.9,0,0,1-.9.9h-2.74v.028a1.8,1.8,0,1,0,0,1.74v.028h2.74a2.7,2.7,0,0,0,2.7-2.7v-.045h.9a3.6,3.6,0,0,0,3.594-3.594v-3.055A3.6,3.6,0,0,0,225.7,203Zm1.8,6.648a1.8,1.8,0,0,1-1.8,1.8h-.9V204.8h.9a1.8,1.8,0,0,1,1.8,1.8Z" transform="translate(-206.297 -193.881)"/></svg>