<svg xmlns="http://www.w3.org/2000/svg" width="24.692" height="27.044" viewBox="0 0 24.692 27.044"><defs><style>.a{fill:#4c4c4c;}</style></defs><path class="a" d="M39.016,14.7v-.343a7.188,7.188,0,0,0,2.646-5.536V7.055a7.055,7.055,0,1,0-14.11,0V8.819A7.113,7.113,0,0,0,30.2,14.331V14.7a7.946,7.946,0,0,0-7.937,7.937V24.4a2.649,2.649,0,0,0,2.646,2.646h19.4A2.649,2.649,0,0,0,46.953,24.4V22.634A7.946,7.946,0,0,0,39.016,14.7ZM36.265,2.03A5.317,5.317,0,0,1,39.6,5.291h-.579A4.4,4.4,0,0,1,35.667,3.75,6.1,6.1,0,0,0,36.265,2.03Zm-1.748-.265A4.429,4.429,0,0,1,30.2,5.291h-.579A5.3,5.3,0,0,1,34.517,1.765ZM33.725,25.28H24.907a.883.883,0,0,1-.882-.882V22.634a6.182,6.182,0,0,1,5.33-6.115,4.409,4.409,0,0,0,.95,4.824l1.033,1.033a.882.882,0,0,0,1.247,0l1.14-1.14Zm-2.586-8.394,2.221,2.221-1.4,1.4-.41-.41A2.646,2.646,0,0,1,31.139,16.886Zm1.081-1.413c.128.046.256.09.386.129a.882.882,0,1,0,.5-1.69,5.368,5.368,0,0,1-3.794-5.093V7.055H30.2A6.135,6.135,0,0,0,34.607,5.2a6.16,6.16,0,0,0,4.41,1.853H39.9V8.819a5.3,5.3,0,0,1-2.269,4.333.879.879,0,0,0-.163.148,5.258,5.258,0,0,1-1.332.612.882.882,0,0,0,.5,1.69c.114-.034.227-.072.34-.112l-2.37,2.37ZM37.662,20.1l-.41.41-1.4-1.4,2.22-2.221A2.646,2.646,0,0,1,37.662,20.1Zm7.527,4.3a.883.883,0,0,1-.882.882H35.489V21.236l1.14,1.14a.882.882,0,0,0,1.247,0l1.033-1.033a4.409,4.409,0,0,0,.95-4.824,6.182,6.182,0,0,1,5.33,6.115Z" transform="translate(-22.261)"/></svg>