<svg xmlns="http://www.w3.org/2000/svg" width="53.875" height="53.877" viewBox="0 0 53.875 53.877"><defs><style>.a{fill:#a2afc5;}.b{fill:#dde3e9;}</style></defs><g transform="translate(0 0)"><path class="a" d="M18.765,42.107l-8.038,4.384a7.223,7.223,0,0,0-1.29.918,26.921,26.921,0,0,0,34.59.089,7.131,7.131,0,0,0-1.417-.949L34,42.246a3.282,3.282,0,0,1-1.815-2.936V35.934A13,13,0,0,0,33,34.887a19.8,19.8,0,0,0,2.676-5.392A2.7,2.7,0,0,0,37.6,26.923v-3.6a2.691,2.691,0,0,0-.9-2V16.11S37.765,8,26.783,8s-9.911,8.109-9.911,8.109v5.211a2.687,2.687,0,0,0-.9,2v3.6a2.7,2.7,0,0,0,1.246,2.268,17.888,17.888,0,0,0,3.259,6.743v3.294A3.286,3.286,0,0,1,18.765,42.107Z" transform="translate(0.156 0.132)"/><g transform="translate(0 0)"><path class="b" d="M27.4,0A26.922,26.922,0,0,0,9.6,47.534a7.158,7.158,0,0,1,1.278-.909l8.038-4.384a3.284,3.284,0,0,0,1.711-2.882V36.065a17.871,17.871,0,0,1-3.259-6.743,2.7,2.7,0,0,1-1.246-2.268v-3.6a2.691,2.691,0,0,1,.9-2V16.241s-1.07-8.109,9.911-8.109,9.911,8.109,9.911,8.109v5.211a2.687,2.687,0,0,1,.9,2v3.6a2.7,2.7,0,0,1-1.917,2.572,19.8,19.8,0,0,1-2.676,5.392,13,13,0,0,1-.814,1.047v3.377a3.281,3.281,0,0,0,1.815,2.936l8.607,4.3a7.167,7.167,0,0,1,1.413.947A26.932,26.932,0,0,0,27.4,0Z" transform="translate(0 0)"/></g></g></svg>